# xmcd
#
# Track frame offsets:
#	150
#	33642
#	57834
#	85631
#	136237
#	168707
#	183523
#	203977
#	224646
#	242225
#	258775
#	279149
#
# Disc length: 3896
#
# Revision: 2
# Processed by: cddbd v1.5.1PL0 Copyright (c) Steve Scherf et al.
# Submitted via: libcdaudio 0.99.1
# Normalized: r0:DSETVAR1,TDELIM( - ),TSWAP
#
DISCID=ae0f360c
DTITLE=Various Artist - Blue Sky
DYEAR=1900
DGENRE=
TTITLE0=Eric Clapton - Blues Power
TTITLE1=Peter Preacher - House of ther Rising Sun
TTITLE2=Roy Cox and the BLuesknights - All the King's men
TTITLE3=Type 'O' Negative - Black #1
TTITLE4=The Doorsrm - The Doors - Riders on the StoRiders on the Storm
TTITLE5=Garret "Big G" Johnson - 5th Gear
TTITLE6=Mojo "Black Cat" Bone - Shadow of Fear
TTITLE7=Bluesfuze - The Bathroom Stomp
TTITLE8=Patty Sterling - Woman
TTITLE9=Eric Clapton - Cocaine
TTITLE10=Sherryl Crow - All I wanna do
TTITLE11=The Doors - End of the Night
EXTD=
EXTT0=
EXTT1=
EXTT2=
EXTT3=
EXTT4=
EXTT5=
EXTT6=
EXTT7=
EXTT8=
EXTT9=
EXTT10=
EXTT11=
PLAYORDER=
